<svg xmlns="http://www.w3.org/2000/svg" xmlns:xlink="http://www.w3.org/1999/xlink" width="401" zoomAndPan="magnify" viewBox="0 0 300.75 329.999987" height="440" preserveAspectRatio="xMidYMid meet" version="1.0"><defs><g/><clipPath id="40c01b0ff3"><path d="M 0 0.136719 L 300.5 0.136719 L 300.5 329.863281 L 0 329.863281 Z M 0 0.136719 " clip-rule="nonzero"/></clipPath><clipPath id="82b7d22341"><path d="M 96.703125 293.894531 L 223.082031 293.894531 L 223.082031 305.730469 L 96.703125 305.730469 Z M 96.703125 293.894531 " clip-rule="nonzero"/></clipPath><clipPath id="34cf3db215"><path d="M 4 45 L 162 45 L 162 202 L 4 202 Z M 4 45 " clip-rule="nonzero"/></clipPath><clipPath id="40a748ec75"><path d="M -4.992188 48.230469 L 159.648438 39.621094 L 167.867188 196.773438 L 3.230469 205.386719 Z M -4.992188 48.230469 " clip-rule="nonzero"/></clipPath><clipPath id="3aca6eea81"><path d="M -4.992188 48.230469 L 159.648438 39.621094 L 167.867188 196.773438 L 3.230469 205.386719 Z M -4.992188 48.230469 " clip-rule="nonzero"/></clipPath><clipPath id="a1cca66735"><path d="M -4.992188 48.230469 L 159.648438 39.621094 L 167.867188 196.773438 L 3.230469 205.386719 Z M -4.992188 48.230469 " clip-rule="nonzero"/></clipPath><clipPath id="f8ecde33d5"><path d="M 4 45 L 162 45 L 162 202 L 4 202 Z M 4 45 " clip-rule="nonzero"/></clipPath><clipPath id="b032b03f56"><path d="M -4.992188 48.230469 L 159.648438 39.621094 L 167.867188 196.773438 L 3.230469 205.386719 Z M -4.992188 48.230469 " clip-rule="nonzero"/></clipPath><clipPath id="be0d0b42ce"><path d="M -4.992188 48.230469 L 159.648438 39.621094 L 167.867188 196.773438 L 3.230469 205.386719 Z M -4.992188 48.230469 " clip-rule="nonzero"/></clipPath><clipPath id="d7ac3b1115"><path d="M -4.992188 48.230469 L 159.648438 39.621094 L 167.867188 196.773438 L 3.230469 205.386719 Z M -4.992188 48.230469 " clip-rule="nonzero"/></clipPath><clipPath id="9f738a3a8e"><path d="M -2.34375 50.046875 L 159.433594 41.585938 L 167.445312 194.703125 L 5.667969 203.164062 Z M -2.34375 50.046875 " clip-rule="nonzero"/></clipPath><clipPath id="3da10992fa"><path d="M 65.199219 50.003906 L 66.273438 50.171875 C 78.386719 45.433594 106.898438 60.105469 101.484375 74.792969 C 100.042969 77.128906 100.515625 81.125 102.53125 83.546875 L 69.738281 119.902344 C 67.699219 118.070312 63.390625 118.335938 61.507812 120.335938 L 7.15625 178.144531 C 2.199219 183.414062 6.523438 187.445312 8.84375 189.570312 L 19.644531 199.277344 C 22.003906 201.386719 28.089844 204.085938 32.070312 199.410156 L 83.097656 139.777344 C 84.875 137.703125 84.667969 133.457031 82.671875 131.609375 C 82.671875 131.609375 82.683594 131.578125 82.667969 131.582031 L 115.597656 95.101562 C 119.4375 98.210938 122.914062 98.3125 126.15625 97.246094 C 132.410156 95.179688 136.273438 101.191406 140.304688 105.519531 L 138.679688 107.296875 C 136.273438 109.988281 136.738281 114.292969 139.730469 116.984375 C 142.722656 119.671875 147.074219 119.683594 149.480469 117.015625 L 160.238281 105.105469 C 162.644531 102.414062 162.179688 98.109375 159.175781 95.433594 C 156.472656 92.992188 152.734375 92.851562 150.234375 94.828125 C 141.996094 86.519531 146.015625 84.996094 135.15625 74.191406 L 114.898438 55.582031 C 100.339844 42.75 82.351562 43.703125 65.199219 50.003906 Z M 65.199219 50.003906 " clip-rule="nonzero"/></clipPath><clipPath id="580b897618"><path d="M 3 115 L 87 115 L 87 205 L 3 205 Z M 3 115 " clip-rule="nonzero"/></clipPath><clipPath id="1fb283bbad"><path d="M 1.59375 183.859375 L 62.222656 113.210938 L 88.210938 135.507812 L 27.582031 206.160156 Z M 1.59375 183.859375 " clip-rule="nonzero"/></clipPath><clipPath id="399defa031"><path d="M 5.011719 179.878906 L 58.800781 117.199219 C 60.6875 115 64 114.746094 66.199219 116.632812 L 84.222656 132.101562 C 86.421875 133.988281 86.675781 137.300781 84.789062 139.496094 L 31 202.179688 C 29.113281 204.378906 25.800781 204.628906 23.601562 202.742188 L 5.578125 187.277344 C 3.378906 185.390625 3.125 182.078125 5.011719 179.878906 Z M 5.011719 179.878906 " clip-rule="nonzero"/></clipPath><clipPath id="a5e850a61f"><path d="M 53.222656 175.25 L 281.769531 175.25 L 281.769531 289.90625 L 53.222656 289.90625 Z M 53.222656 175.25 " clip-rule="nonzero"/></clipPath></defs><g clip-path="url(#40c01b0ff3)"><path fill="#ffffff" d="M 0 0.136719 L 300.5 0.136719 L 300.5 329.863281 L 0 329.863281 Z M 0 0.136719 " fill-opacity="1" fill-rule="nonzero"/><path fill="#ffffff" d="M 0 0.136719 L 300.5 0.136719 L 300.5 329.863281 L 0 329.863281 Z M 0 0.136719 " fill-opacity="1" fill-rule="nonzero"/></g><g clip-path="url(#82b7d22341)"><path fill="#fe7513" d="M 96.703125 293.894531 L 223.089844 293.894531 L 223.089844 305.730469 L 96.703125 305.730469 Z M 96.703125 293.894531 " fill-opacity="1" fill-rule="nonzero"/></g><g clip-path="url(#34cf3db215)"><g clip-path="url(#40a748ec75)"><g clip-path="url(#3aca6eea81)"><g clip-path="url(#a1cca66735)"><path fill="#000000" d="M 65.199219 50.003906 L 66.273438 50.171875 C 78.386719 45.433594 106.898438 60.105469 101.484375 74.792969 C 100.042969 77.128906 100.515625 81.125 102.53125 83.546875 L 69.738281 119.902344 C 67.699219 118.070312 63.390625 118.335938 61.507812 120.335938 L 7.15625 178.144531 C 2.199219 183.414062 6.523438 187.445312 8.84375 189.570312 L 19.644531 199.277344 C 22.003906 201.386719 28.089844 204.085938 32.070312 199.410156 L 83.097656 139.777344 C 84.875 137.703125 84.667969 133.457031 82.671875 131.609375 C 82.671875 131.609375 82.683594 131.578125 82.667969 131.582031 L 115.597656 95.101562 C 119.4375 98.210938 122.914062 98.3125 126.15625 97.246094 C 132.410156 95.179688 136.273438 101.191406 140.304688 105.519531 L 138.679688 107.296875 C 136.273438 109.988281 136.738281 114.292969 139.730469 116.984375 C 142.722656 119.671875 147.074219 119.683594 149.480469 117.015625 L 160.238281 105.105469 C 162.644531 102.414062 162.179688 98.109375 159.175781 95.433594 C 156.472656 92.992188 152.734375 92.851562 150.234375 94.828125 C 141.996094 86.519531 146.015625 84.996094 135.15625 74.191406 L 114.898438 55.582031 C 100.339844 42.75 82.351562 43.703125 65.199219 50.003906 Z M 65.199219 50.003906 " fill-opacity="1" fill-rule="nonzero"/><path fill="#000000" d="M 65.199219 50.003906 L 66.273438 50.171875 C 78.386719 45.433594 106.898438 60.105469 101.484375 74.792969 C 100.042969 77.128906 100.515625 81.125 102.53125 83.546875 L 69.738281 119.902344 C 67.699219 118.070312 63.390625 118.335938 61.507812 120.335938 L 7.15625 178.144531 C 2.199219 183.414062 6.523438 187.445312 8.84375 189.570312 L 19.644531 199.277344 C 22.003906 201.386719 28.089844 204.085938 32.070312 199.410156 L 83.097656 139.777344 C 84.875 137.703125 84.667969 133.457031 82.671875 131.609375 C 82.671875 131.609375 82.683594 131.578125 82.667969 131.582031 L 115.597656 95.101562 C 119.4375 98.210938 122.914062 98.3125 126.15625 97.246094 C 132.410156 95.179688 136.273438 101.191406 140.304688 105.519531 L 138.679688 107.296875 C 136.273438 109.988281 136.738281 114.292969 139.730469 116.984375 C 142.722656 119.671875 147.074219 119.683594 149.480469 117.015625 L 160.238281 105.105469 C 162.644531 102.414062 162.179688 98.109375 159.175781 95.433594 C 156.472656 92.992188 152.734375 92.851562 150.234375 94.828125 C 141.996094 86.519531 146.015625 84.996094 135.15625 74.191406 L 114.898438 55.582031 C 100.339844 42.75 82.351562 43.703125 65.199219 50.003906 Z M 65.199219 50.003906 " fill-opacity="1" fill-rule="nonzero"/></g></g></g></g><g clip-path="url(#f8ecde33d5)"><g clip-path="url(#b032b03f56)"><g clip-path="url(#be0d0b42ce)"><g clip-path="url(#d7ac3b1115)"><g clip-path="url(#9f738a3a8e)"><g clip-path="url(#3da10992fa)"><path fill="#000000" d="M 65.199219 50.003906 L 66.273438 50.171875 C 78.386719 45.433594 106.898438 60.105469 101.484375 74.792969 C 100.042969 77.128906 100.515625 81.125 102.53125 83.546875 L 69.738281 119.902344 C 67.699219 118.070312 63.390625 118.335938 61.507812 120.335938 L 7.15625 178.144531 C 2.199219 183.414062 6.523438 187.445312 8.84375 189.570312 L 19.644531 199.277344 C 22.003906 201.386719 28.089844 204.085938 32.070312 199.410156 L 83.097656 139.777344 C 84.875 137.703125 84.667969 133.457031 82.671875 131.609375 C 82.671875 131.609375 82.683594 131.578125 82.667969 131.582031 L 115.597656 95.101562 C 119.4375 98.210938 122.914062 98.3125 126.15625 97.246094 C 132.410156 95.179688 136.273438 101.191406 140.304688 105.519531 L 138.679688 107.296875 C 136.273438 109.988281 136.738281 114.292969 139.730469 116.984375 C 142.722656 119.671875 147.074219 119.683594 149.480469 117.015625 L 160.238281 105.105469 C 162.644531 102.414062 162.179688 98.109375 159.175781 95.433594 C 156.472656 92.992188 152.734375 92.851562 150.234375 94.828125 C 141.996094 86.519531 146.015625 84.996094 135.15625 74.191406 L 114.898438 55.582031 C 100.339844 42.75 82.351562 43.703125 65.199219 50.003906 Z M 65.199219 50.003906 " fill-opacity="1" fill-rule="nonzero"/></g></g></g></g></g></g><path stroke-linecap="butt" transform="matrix(0.52989, -0.52989, 0.52989, 0.52989, 132.601815, 112.497446)" fill="none" stroke-linejoin="miter" d="M 0.00103801 10.002044 L 41.500691 9.998358 " stroke="#0077b6" stroke-width="20" stroke-opacity="1" stroke-miterlimit="4"/><g clip-path="url(#580b897618)"><g clip-path="url(#1fb283bbad)"><g clip-path="url(#399defa031)"><path fill="#fe7513" d="M 1.59375 183.859375 L 62.222656 113.210938 L 88.210938 135.507812 L 27.582031 206.160156 Z M 1.59375 183.859375 " fill-opacity="1" fill-rule="nonzero"/></g></g></g><g clip-path="url(#a5e850a61f)"><path fill="#0077b6" d="M 63.292969 175.496094 L 193.042969 175.496094 C 193.546875 175.496094 194.03125 175.589844 194.496094 175.785156 C 194.960938 175.976562 195.371094 176.25 195.726562 176.605469 C 196.082031 176.960938 196.355469 177.371094 196.546875 177.835938 C 196.738281 178.300781 196.835938 178.785156 196.835938 179.285156 L 196.835938 180.308594 L 208.890625 180.308594 C 209.390625 180.308594 209.875 180.40625 210.339844 180.597656 C 210.804688 180.789062 211.214844 181.0625 211.570312 181.417969 C 211.925781 181.773438 212.199219 182.183594 212.390625 182.648438 C 212.582031 183.113281 212.679688 183.597656 212.679688 184.101562 L 212.679688 184.175781 L 277.613281 184.175781 C 278.351562 184.179688 279.03125 184.382812 279.652344 184.777344 C 280.277344 185.175781 280.746094 185.707031 281.0625 186.375 C 281.367188 187.039062 281.472656 187.734375 281.378906 188.460938 C 281.28125 189.1875 281 189.832031 280.53125 190.390625 C 279.394531 191.757812 253.464844 222.042969 212.679688 223.027344 L 212.679688 223.558594 C 212.679688 224.0625 212.582031 224.546875 212.390625 225.011719 C 212.199219 225.476562 211.925781 225.882812 211.570312 226.238281 C 211.214844 226.59375 210.804688 226.871094 210.339844 227.0625 C 209.875 227.253906 209.390625 227.351562 208.890625 227.351562 L 194.675781 227.351562 C 193.234375 228.261719 184.589844 234.25 192.058594 248.386719 C 193.191406 250.433594 194.507812 252.355469 196.011719 254.144531 C 197.511719 255.9375 199.175781 257.566406 200.992188 259.035156 C 202.8125 260.503906 204.757812 261.785156 206.824219 262.875 C 208.894531 263.964844 211.046875 264.847656 213.285156 265.523438 L 218.101562 267.039062 C 218.136719 267.039062 218.175781 267.074219 218.25 267.113281 C 218.445312 267.171875 218.621094 267.261719 218.78125 267.378906 C 219.007812 267.484375 219.210938 267.621094 219.390625 267.796875 C 219.546875 267.902344 219.683594 268.027344 219.804688 268.175781 C 219.957031 268.382812 220.097656 268.597656 220.222656 268.820312 C 220.335938 268.972656 220.421875 269.136719 220.488281 269.3125 C 220.605469 269.671875 220.679688 270.035156 220.714844 270.410156 C 220.714844 270.488281 220.753906 270.5625 220.753906 270.640625 L 220.753906 285.875 C 220.753906 286.378906 220.65625 286.863281 220.464844 287.328125 C 220.273438 287.792969 220 288.203125 219.644531 288.558594 C 219.289062 288.914062 218.878906 289.1875 218.414062 289.378906 C 217.949219 289.570312 217.464844 289.667969 216.964844 289.667969 L 189.367188 289.667969 C 188.882812 289.671875 188.414062 289.582031 187.964844 289.402344 C 187.707031 289.28125 187.464844 289.128906 187.246094 288.949219 C 187.066406 288.855469 186.902344 288.742188 186.753906 288.605469 C 184.960938 286.894531 183.027344 285.367188 180.949219 284.019531 C 178.871094 282.671875 176.683594 281.53125 174.390625 280.597656 C 172.097656 279.664062 169.738281 278.953125 167.308594 278.460938 C 164.882812 277.972656 162.429688 277.714844 159.953125 277.6875 L 159.839844 277.6875 C 157.355469 277.714844 154.894531 277.972656 152.457031 278.460938 C 150.019531 278.949219 147.652344 279.664062 145.347656 280.597656 C 143.042969 281.53125 140.847656 282.671875 138.761719 284.019531 C 136.671875 285.363281 134.726562 286.894531 132.925781 288.605469 C 132.792969 288.703125 132.652344 288.792969 132.507812 288.871094 C 132.265625 289.082031 132 289.261719 131.714844 289.402344 C 131.390625 289.503906 131.0625 289.566406 130.726562 289.589844 C 130.578125 289.636719 130.425781 289.660156 130.273438 289.667969 L 103.285156 289.667969 C 102.78125 289.667969 102.296875 289.570312 101.832031 289.378906 C 101.367188 289.1875 100.957031 288.914062 100.601562 288.558594 C 100.246094 288.203125 99.972656 287.792969 99.78125 287.328125 C 99.589844 286.863281 99.492188 286.378906 99.492188 285.875 L 99.492188 271.359375 C 99.496094 270.9375 99.570312 270.527344 99.710938 270.128906 C 99.847656 269.730469 100.050781 269.363281 100.308594 269.03125 C 100.570312 268.699219 100.875 268.417969 101.230469 268.1875 C 101.582031 267.957031 101.964844 267.789062 102.375 267.683594 C 102.527344 267.644531 118.179688 263.550781 123.828125 252.214844 C 124.519531 250.644531 125.03125 249.015625 125.359375 247.328125 C 125.691406 245.640625 125.832031 243.9375 125.78125 242.222656 C 125.730469 240.503906 125.496094 238.8125 125.070312 237.148438 C 124.644531 235.484375 124.039062 233.882812 123.261719 232.355469 C 122.164062 229.882812 120.84375 227.539062 119.296875 225.324219 C 117.746094 223.113281 116 221.066406 114.050781 219.191406 C 112.105469 217.316406 109.996094 215.648438 107.726562 214.183594 C 105.457031 212.714844 103.066406 211.484375 100.554688 210.480469 L 59.691406 193.425781 C 59.199219 193.21875 58.726562 192.96875 58.277344 192.683594 C 57.828125 192.394531 57.40625 192.070312 57.011719 191.710938 C 56.617188 191.347656 56.253906 190.957031 55.929688 190.535156 C 55.601562 190.113281 55.3125 189.664062 55.0625 189.195312 C 54.8125 188.722656 54.605469 188.230469 54.4375 187.722656 C 54.273438 187.214844 54.148438 186.699219 54.074219 186.167969 C 53.996094 185.640625 53.964844 185.109375 53.980469 184.574219 C 53.992188 184.039062 54.054688 183.511719 54.160156 182.988281 C 54.265625 182.464844 54.414062 181.953125 54.605469 181.453125 C 54.800781 180.957031 55.03125 180.476562 55.308594 180.019531 C 55.582031 179.5625 55.894531 179.128906 56.246094 178.726562 C 56.59375 178.320312 56.976562 177.949219 57.390625 177.609375 C 57.800781 177.273438 58.242188 176.972656 58.707031 176.707031 C 59.171875 176.445312 59.65625 176.222656 60.15625 176.042969 C 60.660156 175.863281 61.175781 175.726562 61.703125 175.632812 C 62.226562 175.542969 62.757812 175.496094 63.292969 175.496094 Z M 196.835938 219.769531 L 205.097656 219.769531 L 205.097656 187.964844 L 196.835938 187.929688 Z M 103.472656 203.46875 C 106.445312 204.652344 109.273438 206.109375 111.957031 207.847656 C 114.644531 209.582031 117.136719 211.5625 119.433594 213.785156 C 121.734375 216.007812 123.792969 218.433594 125.617188 221.0625 C 127.441406 223.6875 128.992188 226.464844 130.273438 229.398438 C 131.273438 231.429688 132.035156 233.546875 132.5625 235.753906 C 133.089844 237.957031 133.371094 240.191406 133.398438 242.457031 C 133.429688 244.722656 133.207031 246.960938 132.738281 249.179688 C 132.269531 251.394531 131.558594 253.53125 130.613281 255.589844 C 128.109375 260.332031 124.660156 264.234375 120.265625 267.304688 L 129.136719 267.304688 L 140.015625 260.175781 C 141.515625 259.195312 143.082031 258.324219 144.714844 257.570312 C 146.34375 256.816406 148.019531 256.183594 149.738281 255.675781 C 151.460938 255.164062 153.210938 254.78125 154.988281 254.527344 C 156.765625 254.269531 158.554688 254.144531 160.347656 254.148438 C 162.144531 254.15625 163.929688 254.289062 165.707031 254.554688 C 167.484375 254.820312 169.230469 255.214844 170.949219 255.734375 C 172.667969 256.253906 174.339844 256.894531 175.964844 257.660156 C 177.589844 258.421875 179.152344 259.300781 180.648438 260.289062 L 190.503906 266.847656 L 198.882812 266.847656 C 196.054688 264.941406 193.5 262.726562 191.210938 260.199219 C 188.921875 257.675781 186.96875 254.914062 185.351562 251.914062 C 176.367188 234.929688 185.085938 225.339844 189.253906 221.96875 L 189.253906 202.257812 L 100.554688 202.257812 Z M 103.472656 203.46875 " fill-opacity="1" fill-rule="nonzero"/></g><g fill="#fe7513" fill-opacity="1"><g transform="translate(133.067656, 235.810665)"><g><path d="M 13.859375 0.40625 C 10.898438 0.40625 8.460938 0.00390625 6.546875 -0.796875 C 4.628906 -1.597656 3.191406 -2.648438 2.234375 -3.953125 C 1.273438 -5.253906 0.769531 -6.640625 0.71875 -8.109375 C 0.71875 -8.347656 0.800781 -8.550781 0.96875 -8.71875 C 1.144531 -8.894531 1.351562 -8.984375 1.59375 -8.984375 L 9.1875 -8.984375 C 9.613281 -8.984375 9.9375 -8.921875 10.15625 -8.796875 C 10.382812 -8.679688 10.632812 -8.519531 10.90625 -8.3125 C 11.28125 -8.019531 11.695312 -7.789062 12.15625 -7.625 C 12.625 -7.46875 13.191406 -7.390625 13.859375 -7.390625 C 14.765625 -7.390625 15.488281 -7.488281 16.03125 -7.6875 C 16.582031 -7.882812 16.859375 -8.15625 16.859375 -8.5 C 16.859375 -8.976562 16.488281 -9.34375 15.75 -9.59375 C 15.019531 -9.851562 13.671875 -10.117188 11.703125 -10.390625 C 8.554688 -10.804688 6.050781 -11.707031 4.1875 -13.09375 C 2.320312 -14.476562 1.390625 -16.503906 1.390625 -19.171875 C 1.390625 -20.984375 1.898438 -22.582031 2.921875 -23.96875 C 3.953125 -25.351562 5.378906 -26.429688 7.203125 -27.203125 C 9.023438 -27.972656 11.148438 -28.359375 13.578125 -28.359375 C 15.578125 -28.359375 17.347656 -28.097656 18.890625 -27.578125 C 20.429688 -27.054688 21.734375 -26.375 22.796875 -25.53125 C 23.867188 -24.695312 24.679688 -23.800781 25.234375 -22.84375 C 25.796875 -21.882812 26.09375 -20.96875 26.125 -20.09375 C 26.125 -19.851562 26.035156 -19.644531 25.859375 -19.46875 C 25.679688 -19.289062 25.488281 -19.203125 25.28125 -19.203125 L 17.296875 -19.203125 C 16.921875 -19.203125 16.617188 -19.253906 16.390625 -19.359375 C 16.171875 -19.472656 15.941406 -19.632812 15.703125 -19.84375 C 15.566406 -19.976562 15.316406 -20.128906 14.953125 -20.296875 C 14.597656 -20.472656 14.140625 -20.5625 13.578125 -20.5625 C 12.296875 -20.5625 11.65625 -20.191406 11.65625 -19.453125 C 11.65625 -19.078125 11.945312 -18.75 12.53125 -18.46875 C 13.125 -18.1875 14.3125 -17.941406 16.09375 -17.734375 C 18.757812 -17.410156 20.894531 -16.894531 22.5 -16.1875 C 24.113281 -15.488281 25.285156 -14.550781 26.015625 -13.375 C 26.753906 -12.207031 27.125 -10.757812 27.125 -9.03125 C 27.125 -7.082031 26.539062 -5.398438 25.375 -3.984375 C 24.21875 -2.578125 22.640625 -1.492188 20.640625 -0.734375 C 18.648438 0.0234375 16.390625 0.40625 13.859375 0.40625 Z M 14.0625 -26.875 C 13.84375 -27.0625 13.65625 -27.164062 13.5 -27.1875 C 13.34375 -27.21875 13.144531 -27.140625 12.90625 -26.953125 C 12.6875 -26.828125 12.609375 -26.6875 12.671875 -26.53125 C 12.742188 -26.382812 12.820312 -26.179688 12.90625 -25.921875 C 12.957031 -25.703125 13.007812 -25.523438 13.0625 -25.390625 C 13.113281 -25.265625 13.257812 -25.203125 13.5 -25.203125 C 13.757812 -25.203125 13.957031 -25.234375 14.09375 -25.296875 C 14.226562 -25.367188 14.347656 -25.535156 14.453125 -25.796875 C 14.535156 -26.066406 14.550781 -26.273438 14.5 -26.421875 C 14.445312 -26.566406 14.300781 -26.71875 14.0625 -26.875 Z M 10.46875 -26.125 C 10.28125 -26.363281 10.101562 -26.488281 9.9375 -26.5 C 9.78125 -26.507812 9.554688 -26.476562 9.265625 -26.40625 C 8.941406 -26.289062 8.703125 -26.1875 8.546875 -26.09375 C 8.390625 -26 8.3125 -25.78125 8.3125 -25.4375 C 8.3125 -25.144531 8.410156 -24.976562 8.609375 -24.9375 C 8.804688 -24.894531 9.050781 -24.835938 9.34375 -24.765625 C 9.613281 -24.679688 9.828125 -24.617188 9.984375 -24.578125 C 10.140625 -24.535156 10.300781 -24.632812 10.46875 -24.875 C 10.65625 -25.113281 10.75 -25.320312 10.75 -25.5 C 10.75 -25.675781 10.65625 -25.882812 10.46875 -26.125 Z M 16.21875 -23.765625 L 15.734375 -23.765625 L 15.890625 -23.359375 L 16.171875 -23.203125 L 16.453125 -23.484375 Z M 13.734375 -23.40625 L 13.375 -23.640625 L 12.984375 -23.5625 L 13.0625 -23.125 L 13.5 -22.96875 Z M 10.21875 -22.484375 L 9.984375 -22.53125 L 9.75 -22.25 L 10.0625 -22.078125 L 10.390625 -22.203125 Z M 6.984375 -22.328125 C 6.640625 -22.378906 6.367188 -22.378906 6.171875 -22.328125 C 5.972656 -22.273438 5.789062 -22.070312 5.625 -21.71875 C 5.363281 -21.238281 5.117188 -20.859375 4.890625 -20.578125 C 4.660156 -20.304688 4.75 -19.957031 5.15625 -19.53125 C 5.632812 -19.050781 6.046875 -18.765625 6.390625 -18.671875 C 6.734375 -18.578125 7.210938 -18.675781 7.828125 -18.96875 C 8.441406 -19.257812 8.804688 -19.578125 8.921875 -19.921875 C 9.046875 -20.273438 9.054688 -20.785156 8.953125 -21.453125 C 8.890625 -21.984375 8.675781 -22.234375 8.3125 -22.203125 C 7.957031 -22.179688 7.515625 -22.222656 6.984375 -22.328125 Z M 24.796875 -21.203125 C 24.796875 -21.441406 24.769531 -21.617188 24.71875 -21.734375 C 24.664062 -21.859375 24.535156 -21.960938 24.328125 -22.046875 C 24.109375 -22.097656 23.972656 -22.0625 23.921875 -21.9375 C 23.867188 -21.820312 23.773438 -21.671875 23.640625 -21.484375 C 23.484375 -21.242188 23.472656 -21.046875 23.609375 -20.890625 C 23.734375 -20.703125 23.828125 -20.539062 23.890625 -20.40625 C 23.960938 -20.269531 24.109375 -20.242188 24.328125 -20.328125 C 24.566406 -20.410156 24.703125 -20.515625 24.734375 -20.640625 C 24.773438 -20.773438 24.796875 -20.960938 24.796875 -21.203125 Z M 12.1875 -21.6875 L 11.90625 -21.890625 L 11.65625 -21.640625 L 11.65625 -21.203125 L 12.1875 -21.203125 Z M 21.53125 -21.6875 C 21.289062 -21.820312 21.0625 -21.78125 20.84375 -21.5625 C 20.65625 -21.375 20.628906 -21.160156 20.765625 -20.921875 C 20.847656 -20.710938 21.035156 -20.632812 21.328125 -20.6875 C 21.535156 -20.738281 21.664062 -20.875 21.71875 -21.09375 C 21.75 -21.25 21.753906 -21.375 21.734375 -21.46875 C 21.722656 -21.5625 21.65625 -21.632812 21.53125 -21.6875 Z M 9.859375 -16.21875 C 9.671875 -16.882812 9.394531 -17.273438 9.03125 -17.390625 C 8.675781 -17.515625 8.15625 -17.585938 7.46875 -17.609375 C 6.800781 -17.640625 6.304688 -17.59375 5.984375 -17.46875 C 5.671875 -17.351562 5.394531 -16.988281 5.15625 -16.375 C 4.914062 -15.789062 4.898438 -15.359375 5.109375 -15.078125 C 5.328125 -14.796875 5.675781 -14.457031 6.15625 -14.0625 C 6.707031 -13.632812 7.144531 -13.300781 7.46875 -13.0625 C 7.789062 -12.820312 8.242188 -12.890625 8.828125 -13.265625 C 9.492188 -13.679688 9.878906 -14.082031 9.984375 -14.46875 C 10.085938 -14.863281 10.046875 -15.445312 9.859375 -16.21875 Z M 13.5 -16.5 C 13.3125 -16.625 13.164062 -16.707031 13.0625 -16.75 C 12.957031 -16.789062 12.796875 -16.757812 12.578125 -16.65625 C 12.335938 -16.5 12.144531 -16.363281 12 -16.25 C 11.851562 -16.144531 11.820312 -15.945312 11.90625 -15.65625 C 11.976562 -15.332031 12.070312 -15.101562 12.1875 -14.96875 C 12.3125 -14.84375 12.550781 -14.765625 12.90625 -14.734375 C 13.269531 -14.710938 13.53125 -14.742188 13.6875 -14.828125 C 13.851562 -14.921875 14.015625 -15.128906 14.171875 -15.453125 C 14.285156 -15.722656 14.253906 -15.910156 14.078125 -16.015625 C 13.898438 -16.117188 13.707031 -16.28125 13.5 -16.5 Z M 16.859375 -15.34375 C 16.804688 -15.582031 16.734375 -15.738281 16.640625 -15.8125 C 16.546875 -15.894531 16.390625 -15.9375 16.171875 -15.9375 C 15.828125 -15.9375 15.546875 -15.960938 15.328125 -16.015625 C 15.117188 -16.066406 14.945312 -15.929688 14.8125 -15.609375 C 14.675781 -15.242188 14.65625 -14.96875 14.75 -14.78125 C 14.84375 -14.59375 15.039062 -14.378906 15.34375 -14.140625 C 15.65625 -13.898438 15.910156 -13.757812 16.109375 -13.71875 C 16.316406 -13.675781 16.59375 -13.765625 16.9375 -13.984375 C 17.195312 -14.160156 17.273438 -14.347656 17.171875 -14.546875 C 17.066406 -14.753906 16.960938 -15.019531 16.859375 -15.34375 Z M 14.421875 -13.140625 C 14.285156 -13.296875 14.160156 -13.375 14.046875 -13.375 C 13.941406 -13.375 13.785156 -13.335938 13.578125 -13.265625 C 13.285156 -13.148438 13.148438 -12.9375 13.171875 -12.625 C 13.171875 -12.40625 13.191406 -12.234375 13.234375 -12.109375 C 13.273438 -11.992188 13.40625 -11.910156 13.625 -11.859375 C 13.863281 -11.773438 14.054688 -11.738281 14.203125 -11.75 C 14.347656 -11.769531 14.5 -11.882812 14.65625 -12.09375 C 14.789062 -12.332031 14.820312 -12.507812 14.75 -12.625 C 14.6875 -12.75 14.578125 -12.921875 14.421875 -13.140625 Z M 22.4375 -11.703125 C 22.332031 -12.390625 22.085938 -12.785156 21.703125 -12.890625 C 21.316406 -13.003906 20.789062 -13.113281 20.125 -13.21875 C 19.507812 -13.320312 19.050781 -13.328125 18.75 -13.234375 C 18.445312 -13.140625 18.160156 -12.828125 17.890625 -12.296875 C 17.628906 -11.796875 17.601562 -11.414062 17.8125 -11.15625 C 18.019531 -10.90625 18.3125 -10.582031 18.6875 -10.1875 C 19.113281 -9.78125 19.445312 -9.460938 19.6875 -9.234375 C 19.925781 -9.015625 20.300781 -9.039062 20.8125 -9.3125 C 21.476562 -9.65625 21.941406 -9.960938 22.203125 -10.234375 C 22.472656 -10.515625 22.550781 -11.003906 22.4375 -11.703125 Z M 22.484375 -8.5 L 22 -8.546875 L 21.921875 -8.140625 L 22.171875 -7.75 L 22.484375 -8.0625 Z M 24.5625 -7.953125 L 24.359375 -8.3125 L 23.921875 -8.109375 L 24.078125 -7.703125 L 24.484375 -7.46875 Z M 6.1875 -6.671875 C 5.84375 -7.117188 5.554688 -7.445312 5.328125 -7.65625 C 5.097656 -7.875 4.707031 -7.890625 4.15625 -7.703125 C 3.539062 -7.492188 3.125 -7.253906 2.90625 -6.984375 C 2.695312 -6.722656 2.59375 -6.269531 2.59375 -5.625 C 2.59375 -4.957031 2.695312 -4.484375 2.90625 -4.203125 C 3.125 -3.929688 3.550781 -3.6875 4.1875 -3.46875 C 4.832031 -3.28125 5.320312 -3.242188 5.65625 -3.359375 C 5.988281 -3.484375 6.335938 -3.828125 6.703125 -4.390625 C 7.023438 -4.867188 7.101562 -5.25 6.9375 -5.53125 C 6.78125 -5.8125 6.53125 -6.191406 6.1875 -6.671875 Z M 10.03125 -6.03125 C 9.945312 -6.40625 9.894531 -6.71875 9.875 -6.96875 C 9.863281 -7.21875 9.675781 -7.359375 9.3125 -7.390625 C 8.9375 -7.410156 8.734375 -7.296875 8.703125 -7.046875 C 8.679688 -6.796875 8.585938 -6.5 8.421875 -6.15625 C 8.347656 -5.882812 8.300781 -5.664062 8.28125 -5.5 C 8.269531 -5.34375 8.375 -5.1875 8.59375 -5.03125 C 8.882812 -4.789062 9.113281 -4.597656 9.28125 -4.453125 C 9.457031 -4.304688 9.71875 -4.335938 10.0625 -4.546875 C 10.351562 -4.765625 10.445312 -4.976562 10.34375 -5.1875 C 10.238281 -5.40625 10.132812 -5.6875 10.03125 -6.03125 Z M 24 -6.4375 C 23.84375 -6.488281 23.722656 -6.519531 23.640625 -6.53125 C 23.554688 -6.539062 23.460938 -6.492188 23.359375 -6.390625 C 23.253906 -6.253906 23.210938 -6.144531 23.234375 -6.0625 C 23.265625 -5.988281 23.320312 -5.882812 23.40625 -5.75 C 23.507812 -5.5625 23.582031 -5.398438 23.625 -5.265625 C 23.664062 -5.140625 23.789062 -5.101562 24 -5.15625 C 24.21875 -5.175781 24.304688 -5.257812 24.265625 -5.40625 C 24.222656 -5.550781 24.210938 -5.734375 24.234375 -5.953125 C 24.265625 -6.191406 24.1875 -6.351562 24 -6.4375 Z M 18.09375 -5.828125 C 17.9375 -6.015625 17.789062 -6.117188 17.65625 -6.140625 C 17.519531 -6.171875 17.332031 -6.148438 17.09375 -6.078125 C 16.851562 -5.992188 16.707031 -5.894531 16.65625 -5.78125 C 16.601562 -5.675781 16.578125 -5.503906 16.578125 -5.265625 C 16.578125 -5.054688 16.625 -4.925781 16.71875 -4.875 C 16.8125 -4.820312 16.953125 -4.769531 17.140625 -4.71875 C 17.316406 -4.65625 17.457031 -4.625 17.5625 -4.625 C 17.675781 -4.625 17.785156 -4.707031 17.890625 -4.875 C 18.023438 -5.0625 18.125 -5.210938 18.1875 -5.328125 C 18.257812 -5.453125 18.226562 -5.617188 18.09375 -5.828125 Z M 20.171875 -5.71875 C 20.066406 -5.769531 19.976562 -5.8125 19.90625 -5.84375 C 19.84375 -5.882812 19.757812 -5.867188 19.65625 -5.796875 C 19.539062 -5.660156 19.46875 -5.550781 19.4375 -5.46875 C 19.414062 -5.394531 19.445312 -5.289062 19.53125 -5.15625 C 19.613281 -5.019531 19.691406 -4.960938 19.765625 -4.984375 C 19.847656 -5.015625 19.96875 -5.046875 20.125 -5.078125 C 20.3125 -5.128906 20.421875 -5.234375 20.453125 -5.390625 C 20.472656 -5.523438 20.378906 -5.632812 20.171875 -5.71875 Z M 14.9375 -4.828125 L 14.609375 -4.796875 L 14.609375 -4.46875 L 14.890625 -4.265625 L 15.0625 -4.546875 Z M 11.46875 -4.15625 C 11.300781 -4.257812 11.175781 -4.285156 11.09375 -4.234375 C 11.019531 -4.179688 10.914062 -4.101562 10.78125 -4 C 10.625 -3.863281 10.488281 -3.769531 10.375 -3.71875 C 10.269531 -3.664062 10.242188 -3.53125 10.296875 -3.3125 C 10.378906 -3.125 10.472656 -3.015625 10.578125 -2.984375 C 10.691406 -2.960938 10.851562 -2.953125 11.0625 -2.953125 C 11.269531 -2.953125 11.425781 -2.972656 11.53125 -3.015625 C 11.644531 -3.054688 11.726562 -3.171875 11.78125 -3.359375 C 11.832031 -3.566406 11.832031 -3.71875 11.78125 -3.8125 C 11.726562 -3.90625 11.625 -4.019531 11.46875 -4.15625 Z M 19.375 -2.640625 C 19.34375 -2.765625 19.304688 -2.859375 19.265625 -2.921875 C 19.222656 -2.992188 19.140625 -3.03125 19.015625 -3.03125 C 18.773438 -3.03125 18.613281 -2.898438 18.53125 -2.640625 C 18.476562 -2.421875 18.546875 -2.242188 18.734375 -2.109375 C 18.941406 -1.984375 19.140625 -1.984375 19.328125 -2.109375 C 19.429688 -2.191406 19.476562 -2.269531 19.46875 -2.34375 C 19.457031 -2.425781 19.425781 -2.523438 19.375 -2.640625 Z M 19.375 -2.640625 "/></g></g></g><g fill="#fe7513" fill-opacity="1"><g transform="translate(160.904393, 235.810665)"><g><path d="M 3.28125 0 C 2.976562 0 2.722656 -0.101562 2.515625 -0.3125 C 2.304688 -0.53125 2.203125 -0.785156 2.203125 -1.078125 L 2.203125 -26.875 C 2.203125 -27.164062 2.304688 -27.414062 2.515625 -27.625 C 2.722656 -27.84375 2.976562 -27.953125 3.28125 -27.953125 L 23.40625 -27.953125 C 23.695312 -27.953125 23.945312 -27.84375 24.15625 -27.625 C 24.375 -27.414062 24.484375 -27.164062 24.484375 -26.875 L 24.484375 -20.8125 C 24.484375 -20.519531 24.375 -20.265625 24.15625 -20.046875 C 23.945312 -19.835938 23.695312 -19.734375 23.40625 -19.734375 L 11.984375 -19.734375 L 11.984375 -16.78125 L 22.609375 -16.78125 C 22.898438 -16.78125 23.148438 -16.671875 23.359375 -16.453125 C 23.578125 -16.242188 23.6875 -15.992188 23.6875 -15.703125 L 23.6875 -9.671875 C 23.6875 -9.367188 23.578125 -9.113281 23.359375 -8.90625 C 23.148438 -8.695312 22.898438 -8.59375 22.609375 -8.59375 L 11.984375 -8.59375 L 11.984375 -1.078125 C 11.984375 -0.785156 11.875 -0.53125 11.65625 -0.3125 C 11.445312 -0.101562 11.195312 0 10.90625 0 Z M 13.984375 -26.078125 C 13.503906 -26.128906 13.144531 -26.113281 12.90625 -26.03125 C 12.664062 -25.957031 12.4375 -25.707031 12.21875 -25.28125 C 12.007812 -24.851562 11.957031 -24.519531 12.0625 -24.28125 C 12.164062 -24.039062 12.390625 -23.757812 12.734375 -23.4375 C 13.109375 -23.09375 13.414062 -22.851562 13.65625 -22.71875 C 13.894531 -22.59375 14.242188 -22.648438 14.703125 -22.890625 C 15.179688 -23.148438 15.445312 -23.410156 15.5 -23.671875 C 15.550781 -23.941406 15.523438 -24.34375 15.421875 -24.875 C 15.335938 -25.332031 15.1875 -25.632812 14.96875 -25.78125 C 14.757812 -25.925781 14.429688 -26.023438 13.984375 -26.078125 Z M 4.59375 -24.953125 C 4.59375 -25.140625 4.59375 -25.285156 4.59375 -25.390625 C 4.59375 -25.503906 4.5 -25.585938 4.3125 -25.640625 C 3.96875 -25.742188 3.703125 -25.648438 3.515625 -25.359375 C 3.378906 -25.171875 3.296875 -25.015625 3.265625 -24.890625 C 3.242188 -24.773438 3.300781 -24.625 3.4375 -24.4375 C 3.695312 -24.125 4.015625 -24.03125 4.390625 -24.15625 C 4.578125 -24.238281 4.65625 -24.347656 4.625 -24.484375 C 4.601562 -24.617188 4.59375 -24.773438 4.59375 -24.953125 Z M 21.8125 -25.15625 C 21.675781 -25.15625 21.59375 -25.113281 21.5625 -25.03125 C 21.539062 -24.957031 21.503906 -24.867188 21.453125 -24.765625 C 21.390625 -24.628906 21.332031 -24.519531 21.28125 -24.4375 C 21.226562 -24.363281 21.253906 -24.269531 21.359375 -24.15625 C 21.472656 -24.050781 21.566406 -24.019531 21.640625 -24.0625 C 21.722656 -24.101562 21.84375 -24.148438 22 -24.203125 C 22.21875 -24.359375 22.3125 -24.53125 22.28125 -24.71875 C 22.226562 -24.988281 22.070312 -25.132812 21.8125 -25.15625 Z M 18.6875 -24.640625 C 18.632812 -24.878906 18.535156 -25.007812 18.390625 -25.03125 C 18.242188 -25.0625 18.035156 -25.09375 17.765625 -25.125 C 17.554688 -25.144531 17.398438 -25.128906 17.296875 -25.078125 C 17.191406 -25.023438 17.082031 -24.894531 16.96875 -24.6875 C 16.894531 -24.5 16.882812 -24.347656 16.9375 -24.234375 C 16.988281 -24.128906 17.09375 -24 17.25 -23.84375 C 17.46875 -23.6875 17.632812 -23.5625 17.75 -23.46875 C 17.875 -23.375 18.054688 -23.390625 18.296875 -23.515625 C 18.535156 -23.679688 18.679688 -23.835938 18.734375 -23.984375 C 18.785156 -24.128906 18.769531 -24.347656 18.6875 -24.640625 Z M 6.90625 -24.4375 C 6.75 -24.539062 6.625 -24.617188 6.53125 -24.671875 C 6.4375 -24.734375 6.320312 -24.695312 6.1875 -24.5625 C 6.03125 -24.425781 5.925781 -24.304688 5.875 -24.203125 C 5.820312 -24.097656 5.847656 -23.9375 5.953125 -23.71875 C 6.035156 -23.53125 6.132812 -23.4375 6.25 -23.4375 C 6.375 -23.4375 6.523438 -23.453125 6.703125 -23.484375 C 6.890625 -23.503906 7.023438 -23.535156 7.109375 -23.578125 C 7.191406 -23.617188 7.257812 -23.734375 7.3125 -23.921875 C 7.332031 -24.078125 7.300781 -24.179688 7.21875 -24.234375 C 7.144531 -24.296875 7.039062 -24.363281 6.90625 -24.4375 Z M 21.53125 -22.6875 L 21.328125 -22.921875 L 21.046875 -22.796875 L 20.890625 -22.40625 L 21.359375 -22.328125 Z M 10.625 -22.796875 C 10.351562 -22.878906 10.148438 -22.878906 10.015625 -22.796875 C 9.890625 -22.722656 9.757812 -22.578125 9.625 -22.359375 C 9.46875 -22.097656 9.375 -21.894531 9.34375 -21.75 C 9.320312 -21.601562 9.398438 -21.421875 9.578125 -21.203125 C 9.742188 -20.992188 9.90625 -20.894531 10.0625 -20.90625 C 10.21875 -20.914062 10.429688 -20.960938 10.703125 -21.046875 C 10.941406 -21.148438 11.117188 -21.25 11.234375 -21.34375 C 11.359375 -21.4375 11.40625 -21.617188 11.375 -21.890625 C 11.351562 -22.179688 11.296875 -22.382812 11.203125 -22.5 C 11.109375 -22.625 10.914062 -22.722656 10.625 -22.796875 Z M 4 -20.640625 L 3.75 -20.53125 L 3.59375 -20.203125 L 4.15625 -20.375 Z M 7.984375 -20.328125 L 7.515625 -20.53125 L 7.234375 -20.203125 L 7.421875 -19.890625 L 7.75 -19.890625 Z M 6.90625 -16.890625 C 6.90625 -17.316406 6.851562 -17.628906 6.75 -17.828125 C 6.644531 -18.023438 6.390625 -18.179688 5.984375 -18.296875 C 5.566406 -18.421875 5.25 -18.441406 5.03125 -18.359375 C 4.820312 -18.285156 4.597656 -18.0625 4.359375 -17.6875 C 4.085938 -17.34375 3.957031 -17.054688 3.96875 -16.828125 C 3.988281 -16.609375 4.117188 -16.320312 4.359375 -15.96875 C 4.617188 -15.65625 4.851562 -15.5 5.0625 -15.5 C 5.28125 -15.5 5.578125 -15.566406 5.953125 -15.703125 C 6.328125 -15.804688 6.578125 -15.929688 6.703125 -16.078125 C 6.835938 -16.222656 6.90625 -16.492188 6.90625 -16.890625 Z M 9.75 -16.09375 L 9.421875 -15.96875 L 9.265625 -15.578125 L 9.703125 -15.453125 L 10.0625 -15.78125 Z M 13.703125 -15.0625 C 13.460938 -15.269531 13.195312 -15.296875 12.90625 -15.140625 C 12.664062 -15.003906 12.476562 -14.898438 12.34375 -14.828125 C 12.207031 -14.765625 12.15625 -14.601562 12.1875 -14.34375 C 12.238281 -14.070312 12.34375 -13.925781 12.5 -13.90625 C 12.65625 -13.894531 12.867188 -13.878906 13.140625 -13.859375 C 13.378906 -13.828125 13.554688 -13.816406 13.671875 -13.828125 C 13.796875 -13.847656 13.910156 -13.960938 14.015625 -14.171875 C 14.117188 -14.390625 14.140625 -14.550781 14.078125 -14.65625 C 14.015625 -14.757812 13.890625 -14.894531 13.703125 -15.0625 Z M 13.296875 -11.984375 C 13.296875 -12.222656 13.304688 -12.421875 13.328125 -12.578125 C 13.359375 -12.734375 13.253906 -12.851562 13.015625 -12.9375 C 12.753906 -13.019531 12.539062 -13.039062 12.375 -13 C 12.21875 -12.957031 12.0625 -12.816406 11.90625 -12.578125 C 11.738281 -12.367188 11.707031 -12.203125 11.8125 -12.078125 C 11.925781 -11.960938 12.0625 -11.796875 12.21875 -11.578125 C 12.351562 -11.421875 12.46875 -11.320312 12.5625 -11.28125 C 12.65625 -11.238281 12.796875 -11.242188 12.984375 -11.296875 C 13.171875 -11.347656 13.269531 -11.425781 13.28125 -11.53125 C 13.289062 -11.644531 13.296875 -11.796875 13.296875 -11.984375 Z M 9.34375 -12.265625 C 9.101562 -12.421875 8.898438 -12.484375 8.734375 -12.453125 C 8.578125 -12.429688 8.378906 -12.3125 8.140625 -12.09375 C 7.878906 -11.882812 7.6875 -11.707031 7.5625 -11.5625 C 7.445312 -11.414062 7.441406 -11.179688 7.546875 -10.859375 C 7.679688 -10.515625 7.847656 -10.320312 8.046875 -10.28125 C 8.242188 -10.238281 8.515625 -10.234375 8.859375 -10.265625 C 9.160156 -10.285156 9.363281 -10.351562 9.46875 -10.46875 C 9.570312 -10.59375 9.664062 -10.804688 9.75 -11.109375 C 9.820312 -11.398438 9.835938 -11.625 9.796875 -11.78125 C 9.765625 -11.9375 9.613281 -12.097656 9.34375 -12.265625 Z M 4.875 -11.1875 L 4.671875 -11.546875 L 4.3125 -11.265625 L 4.390625 -10.828125 L 4.828125 -10.828125 Z M 16.21875 -11.5 C 16.050781 -11.550781 15.9375 -11.535156 15.875 -11.453125 C 15.8125 -11.378906 15.722656 -11.273438 15.609375 -11.140625 C 15.453125 -10.953125 15.441406 -10.753906 15.578125 -10.546875 C 15.679688 -10.378906 15.757812 -10.242188 15.8125 -10.140625 C 15.863281 -10.035156 15.984375 -10.007812 16.171875 -10.0625 C 16.390625 -10.113281 16.507812 -10.191406 16.53125 -10.296875 C 16.5625 -10.410156 16.578125 -10.570312 16.578125 -10.78125 C 16.578125 -11 16.5625 -11.148438 16.53125 -11.234375 C 16.507812 -11.328125 16.40625 -11.414062 16.21875 -11.5 Z M 19.734375 -10.828125 C 19.617188 -10.953125 19.519531 -11.039062 19.4375 -11.09375 C 19.363281 -11.15625 19.25 -11.160156 19.09375 -11.109375 C 18.875 -11.023438 18.703125 -10.957031 18.578125 -10.90625 C 18.460938 -10.851562 18.40625 -10.707031 18.40625 -10.46875 C 18.4375 -10.195312 18.5 -10.015625 18.59375 -9.921875 C 18.6875 -9.828125 18.863281 -9.753906 19.125 -9.703125 C 19.363281 -9.617188 19.554688 -9.59375 19.703125 -9.625 C 19.847656 -9.65625 19.988281 -9.773438 20.125 -9.984375 C 20.257812 -10.171875 20.265625 -10.3125 20.140625 -10.40625 C 20.023438 -10.5 19.890625 -10.640625 19.734375 -10.828125 Z M 6.984375 -8.390625 C 6.929688 -8.597656 6.84375 -8.726562 6.71875 -8.78125 C 6.601562 -8.832031 6.441406 -8.859375 6.234375 -8.859375 C 5.910156 -8.859375 5.679688 -8.703125 5.546875 -8.390625 C 5.472656 -8.171875 5.425781 -8 5.40625 -7.875 C 5.394531 -7.757812 5.484375 -7.625 5.671875 -7.46875 C 5.859375 -7.332031 6.007812 -7.269531 6.125 -7.28125 C 6.25 -7.300781 6.414062 -7.378906 6.625 -7.515625 C 6.8125 -7.640625 6.9375 -7.753906 7 -7.859375 C 7.070312 -7.972656 7.066406 -8.148438 6.984375 -8.390625 Z M 8.1875 -4.4375 C 8.132812 -4.9375 8.066406 -5.316406 7.984375 -5.578125 C 7.910156 -5.847656 7.632812 -6.039062 7.15625 -6.15625 C 6.5625 -6.28125 6.113281 -6.300781 5.8125 -6.21875 C 5.507812 -6.144531 5.207031 -5.859375 4.90625 -5.359375 C 4.613281 -4.796875 4.488281 -4.351562 4.53125 -4.03125 C 4.570312 -3.707031 4.789062 -3.320312 5.1875 -2.875 C 5.5625 -2.476562 5.894531 -2.3125 6.1875 -2.375 C 6.476562 -2.4375 6.878906 -2.578125 7.390625 -2.796875 C 7.816406 -2.984375 8.066406 -3.1875 8.140625 -3.40625 C 8.222656 -3.632812 8.238281 -3.976562 8.1875 -4.4375 Z M 8.1875 -4.4375 "/></g></g></g></svg>